<svg width="30" height="35" xmlns="http://www.w3.org/2000/svg">
 <title>white google map pin</title>

 <g>
  <title>Layer 1</title>
  <path d="m10.75817,31.64988c-0.69147,-3.39437 -1.91062,-6.21921 -3.38729,-8.83714c-1.09531,-1.94191 -2.36418,-3.73434 -3.53821,-5.61757c-0.39192,-0.62863 -0.73014,-1.29275 -1.10673,-1.94517c-0.753,-1.30454 -1.36352,-2.81707 -1.32473,-4.77909c0.0379,-1.91699 0.59233,-3.45473 1.39181,-4.71202c1.31492,-2.06793 3.51746,-3.7634 6.47274,-4.20896c2.4163,-0.3643 4.68176,0.25118 6.28829,1.19058c1.31273,0.76767 2.32943,1.79309 3.10213,3.0016c0.80659,1.26136 1.36203,2.75153 1.40859,4.69526c0.0239,0.99584 -0.13913,1.91805 -0.36888,2.683c-0.23241,0.77429 -0.60627,1.42152 -0.93893,2.11286c-0.64944,1.34952 -1.46352,2.58608 -2.28063,3.82324c-2.43362,3.68529 -4.7178,7.44353 -5.71817,12.59342l0.00001,-0.00001z" stroke-miterlimit="10" stroke="#000000" fill-rule="evenodd" fill="#ffffff" clip-rule="evenodd" id="svg_2"/>
  <path d="m10.67111,32.41911c1.38758,-1.49653 2.22801,-2.92175 2.83772,-4.33954c0.45222,-1.0518 0.74376,-2.09457 1.12765,-3.14563c0.12821,-0.35089 0.3006,-0.70042 0.44832,-1.05614c0.29543,-0.71132 0.7661,-1.46274 1.78218,-2.20513c0.99278,-0.72543 2.04493,-1.16084 3.07431,-1.42012c1.69288,-0.42644 3.62995,-0.46182 5.29911,0.19306c1.36487,0.53542 2.15804,1.40484 2.46486,2.21459c0.25072,0.66166 0.22595,1.33942 -0.01096,2.01941c-0.24735,0.70971 -0.7335,1.43712 -1.69865,2.19634c-0.4945,0.38903 -1.04277,0.69757 -1.54369,0.927c-0.50705,0.23228 -1.01851,0.37627 -1.5323,0.54874c-1.0029,0.33665 -2.0288,0.58379 -3.05649,0.83055c-3.06102,0.73471 -6.08631,1.53925 -9.19205,3.23685l0,0l-0.00001,0.00002z" fill-rule="evenodd" fill="black" clip-rule="evenodd" opacity="0.09" id="svg_3"/>
  <circle r="3.26807" cy="10.6163" cx="10.7333" fill-rule="evenodd" fill="black" clip-rule="evenodd" id="svg_4"/>
 </g>
</svg>